{
  "title": "My Neighbor Totoro (Tonari no Totoro) 1988 BRrip 1080P x264 MP4 ",
  "uid": 9688907,
  "size": 1805163203,
  "categoryP": "video",
  "categoryS": "hd___movies",
  "magnet": "?xt=urn:btih:39c0554690140dc8b6a17a1fcd4d248dc5afc400&amp;dn=My+Neighbor+Totoro+%28Tonari+no+Totoro%29+1988+BRrip+1080P+x264+MP4+&amp;tr=udp%3A%2F%2Ftracker.openbittorrent.com%3A80&amp;tr=udp%3A%2F%2Fopen.demonii.com%3A1337&amp;tr=udp%3A%2F%2Ftracker.coppersurfer.tk%3A6969&amp;tr=udp%3A%2F%2Fexodus.desync.com%3A6969",
  "seeders": 40,
  "leechers": 5,
  "uploader": "realOfek",
  "files": 3,
  "time": 1393828101,
  "description": "Please leave feedback!\n\nDownload .txt first to check upload date AND signature are correct. Formatting may look weird in notepad, just copy/paste into different text editor like usual.\n\n[url=&quot;http://www.imdb.com/title/tt0096283/&quot;]http://www.imdb.com/title/tt0096283/[/url]\n\nSource: BDrip\n\nUsed 3 pass on very slow.\n\n[color=blue]STUDIO GHIBLI FTW!!![/color]\n\nGeneral\nFormat                                   : MPEG-4\nFormat profile                           : Base Media / Version 2\nCodec ID                                 : mp42\nFile size                                : 1.68 GiB\nDuration                                 : 1h 26mn\nOverall bit rate mode                    : Variable\nOverall bit rate                         : 2 785 Kbps\nEncoded date                             : UTC 2014-03-01 04:51:44\nTagged date                              : UTC 2014-03-01 04:51:50\n\nVideo\nID                                       : 1\nFormat                                   : AVC\nFormat/Info                              : Advanced Video Codec\nFormat profile                           : &lt;a class=&quot;__cf_email__&quot; href=&quot;/cdn-cgi/l/email-protection&quot; data-cfemail=&quot;5018393738101c647e60&quot;&gt;[email&amp;#160;protected]&lt;/a&gt;&lt;script cf-hash='f9e31' type=&quot;text/javascript&quot;&gt;\n/* &lt;![CDATA[ */!function(){try{var t=&quot;currentScript&quot;in document?document.currentScript:function(){for(var t=document.getElementsByTagName(&quot;script&quot;),e=t.length;e--;)if(t[e].getAttribute(&quot;cf-hash&quot;))return t[e]}();if(t&amp;&amp;t.previousSibling){var e,r,n,i,c=t.previousSibling,a=c.getAttribute(&quot;data-cfemail&quot;);if(a){for(e=&quot;&quot;,r=parseInt(a.substr(0,2),16),n=2;a.length-n;n+=2)i=parseInt(a.substr(n,2),16)^r,e+=String.fromCharCode(i);e=document.createTextNode(e),c.parentNode.replaceChild(e,c)}}}catch(u){}}();/* ]]&gt; */&lt;/script&gt;\nFormat settings, CABAC                   : Yes\nFormat settings, ReFrames                : 4 frames\nCodec ID                                 : avc1\nCodec ID/Info                            : Advanced Video Coding\nDuration                                 : 1h 26mn\nBit rate                                 : 2 499 Kbps\nWidth                                    : 1 920 pixels\nHeight                                   : 1 024 pixels\nDisplay aspect ratio                     : 1.85:1\nFrame rate mode                          : Variable\nFrame rate                               : 23.976 fps\nMinimum frame rate                       : 5.988 fps\nMaximum frame rate                       : 23.981 fps\nColor space                              : YUV\nChroma subsampling                       : 4:2:0\nBit depth                                : 8 bits\nScan type                                : Progressive\nBits/(Pixel*Frame)                       : 0.053\nStream size                              : 1.51 GiB (90%)\nWriting library                          : x264 core 133 r2334 a3ac64b\nEncoding settings                        : cabac=1 / ref=4 / deblock=1:1:1 / analyse=0x3:0x133 / me=umh / subme=10 / psy=1 / psy_rd=0.40:0.00 / mixed_ref=1 / me_range=24 / chroma_me=1 / trellis=2 / 8x8dct=1 / cqm=0 / deadzone=21,11 / fast_pskip=1 / chroma_qp_offset=-2 / threads=12 / lookahead_threads=1 / sliced_threads=0 / nr=0 / decimate=1 / interlaced=0 / bluray_compat=0 / constrained_intra=0 / bframes=3 / b_pyramid=2 / b_adapt=2 / b_bias=0 / direct=3 / weightb=1 / open_gop=0 / weightp=2 / keyint=250 / keyint_min=23 / scenecut=40 / intra_refresh=0 / rc_lookahead=60 / rc=2pass / mbtree=1 / bitrate=2499 / ratetol=1.0 / qcomp=0.60 / qpmin=0 / qpmax=69 / qpstep=4 / cplxblur=20.0 / qblur=0.5 / ip_ratio=1.40 / aq=1:0.60\nEncoded date                             : UTC 2014-03-01 04:51:44\nTagged date                              : UTC 2014-03-01 04:51:50\n\nAudio #1\nID                                       : 2\nFormat                                   : AC-3\nFormat/Info                              : Audio Coding 3\nMode extension                           : CM (complete main)\nFormat settings, Endianness              : Big\nCodec ID                                 : ac-3\nDuration                                 : 1h 26mn\nDuration_FirstFrame                      : 251ms\nBit rate mode                            : Constant\nBit rate                                 : 192 Kbps\nChannel(s)                               : 2 channels\nChannel positions                        : Front: L R\nSampling rate                            : 48.0 KHz\nBit depth                                : 16 bits\nCompression mode                         : Lossy\nStream size                              : 119 MiB (7%)\nEncoded date                             : UTC 2014-03-01 04:51:44\nTagged date                              : UTC 2014-03-01 04:51:50\n\nAudio #2\nID                                       : 3\nFormat                                   : AAC\nFormat/Info                              : Advanced Audio Codec\nFormat profile                           : HE-AAC / LC\nCodec ID                                 : 40\nDuration                                 : 1h 26mn\nBit rate mode                            : Variable\nBit rate                                 : 89.8 Kbps\nChannel(s)                               : 2 channels\nChannel positions                        : Front: L R\nSampling rate                            : 48.0 KHz / 24.0 KHz\nCompression mode                         : Lossy\nStream size                              : 55.5 MiB (3%)\nLanguage                                 : Japanese\nEncoded date                             : UTC 2014-03-01 04:51:44\nTagged date                              : UTC 2014-03-01 04:51:50\n\n\n\n\n\n\nEnjoy!",
  "parsed": {
    "xt": "urn:btih:39c0554690140dc8b6a17a1fcd4d248dc5afc400",
    "dn": "My Neighbor Totoro (Tonari no Totoro) 1988 BRrip 1080P x264 MP4 ",
    "tr": [
      "udp://exodus.desync.com:6969",
      "udp://open.demonii.com:1337",
      "udp://tracker.coppersurfer.tk:6969",
      "udp://tracker.openbittorrent.com:80"
    ],
    "infoHash": "39c0554690140dc8b6a17a1fcd4d248dc5afc400",
    "infoHashBuffer": {
      "type": "Buffer",
      "data": [
        57,
        192,
        85,
        70,
        144,
        20,
        13,
        200,
        182,
        161,
        122,
        31,
        205,
        77,
        36,
        141,
        197,
        175,
        196,
        0
      ]
    },
    "name": "My Neighbor Totoro (Tonari no Totoro) 1988 BRrip 1080P x264 MP4 ",
    "announce": [
      "udp://exodus.desync.com:6969",
      "udp://open.demonii.com:1337",
      "udp://tracker.coppersurfer.tk:6969",
      "udp://tracker.openbittorrent.com:80"
    ],
    "urlList": []
  },
  "previous": 45,
  "peers": 215,
  "last_updated": "2016-12-24T22:26:13.243Z"
}